<?xml version="1.0" standalone="no"?>
<!DOCTYPE svg PUBLIC "-//W3C//DTD SVG 20010904//EN"
 "http://www.w3.org/TR/2001/REC-SVG-20010904/DTD/svg10.dtd">
<svg version="1.0" xmlns="http://www.w3.org/2000/svg"
 width="1024.000000pt" height="933.000000pt" viewBox="0 0 1024.000000 933.000000"
 preserveAspectRatio="xMidYMid meet">

<g transform="translate(0.000000,933.000000) scale(0.100000,-0.100000)"
fill="#000000" stroke="none">
<path d="M3628 8676 c-208 -360 -378 -658 -378 -663 0 -5 70 -130 156 -278
150 -260 155 -271 141 -295 -8 -14 -360 -623 -782 -1355 -422 -731 -775 -1337
-785 -1346 -10 -9 -227 -136 -482 -283 l-463 -268 -513 -889 c-283 -489 -512
-894 -510 -899 2 -5 181 -317 398 -694 l395 -685 141 -1 140 0 109 -193 109
-194 1215 -6 c668 -4 1656 -7 2195 -7 l981 0 175 -303 176 -302 77 -3 c42 -2
77 -1 77 2 0 2 -78 139 -174 303 l-173 298 1761 3 1761 2 430 733 c236 402
430 741 430 752 0 11 -904 1587 -2010 3502 l-2010 3483 -232 0 -231 0 -53 93
c-29 50 -61 104 -71 120 l-19 27 -802 0 -802 0 -377 -654z m2557 -3891 c659
-1138 1209 -2090 1223 -2113 l25 -44 -1452 4 c-798 1 -1451 2 -1451 0 0 -2 68
-120 150 -262 83 -143 150 -262 150 -265 0 -3 -598 -5 -1330 -5 -731 0 -1330
2 -1330 3 0 3 2579 4462 2739 4736 l43 74 18 -29 c10 -16 557 -960 1215 -2099z"/>
</g>
</svg>
