<?xml version="1.0" encoding="UTF-8"?>
<svg xmlns="http://www.w3.org/2000/svg" xmlns:serif="http://www.serif.com/" version="1.1" viewBox="0 0 1920 1080">
  <defs>
    <style>
      .cls-1 {
        fill: #b4b4b4;
      }

      .cls-2 {
        isolation: isolate;
      }

      .cls-3 {
        fill: #c6c8c8;
        fill-rule: evenodd;
      }
    </style>
  </defs>
  <!-- Generator: Adobe Illustrator 28.7.0, SVG Export Plug-In . SVG Version: 1.2.0 Build 136)  -->
  <g>
    <g id="Calque_1">
      <g>
        <path class="cls-3" d="M345.6,895.5c-17.3,118.7,47.9,196.1,177.6,173.8,324.7-55.9,840.8-548.5,887.8-899.2,18-134.3-57.9-185.3-173.8-166.2C878.1,62.9,388.8,598.5,345.6,895.5ZM440,819.9c-31.5,77.1-45.4,173.1,37.8,181.3,327.1-27,829.2-560.3,865.2-842.5,10-78.2-23.2-100.8-94.5-86.9-280.4,54.6-677.9,428.2-808.5,748Z"/>
        <g class="cls-2">
          <path class="cls-1" d="M909,847.8v-379.1h83.2v379.1h-83.2ZM973.5,847.8v-65.5h89.1c16.5,0,29.4-4.8,38.7-14.5,9.3-9.7,14-21.5,14-35.4s-2.1-18.3-6.4-25.8c-4.3-7.5-10.3-13.4-18-17.7-7.7-4.3-17.1-6.4-28.2-6.4h-89.1v-63.9h82.2c14,0,25.2-3.5,33.8-10.5,8.6-7,12.9-17.6,12.9-32s-4.3-24.4-12.9-31.4c-8.6-7-19.9-10.5-33.8-10.5h-82.2v-65.5h98.3c24.3,0,45,4.5,62,13.4,17,9,30,20.9,38.9,36,8.9,15,13.4,31.7,13.4,49.9s-7.5,43-22.6,59.1c-15,16.1-37.2,27.2-66.6,33.3l2.1-28.5c31.9,6.1,56.5,18.4,73.8,37.1,17.4,18.6,26,41.5,26,68.7s-5.1,39.5-15.3,56.1c-10.2,16.6-24.9,29.8-44,39.5-19.2,9.7-42.2,14.5-69,14.5h-97.2Z"/>
          <path class="cls-1" d="M1433.2,853.7c-28.3,0-54.5-4.9-78.7-14.8-24.2-9.8-45.3-23.7-63.4-41.6-18.1-17.9-32.1-38.8-42.2-62.6-10-23.8-15-49.5-15-77.1s5-53.2,15-77.1c10-23.8,24-44.5,41.9-62,17.9-17.5,38.9-31.2,63.1-41.1,24.2-9.8,50.4-14.8,78.7-14.8s56.8,4.8,80.3,14.5c23.4,9.7,43.9,22.9,61.5,39.7l-56.4,56.9c-10-10.7-22.1-19.1-36.2-25.2-14.1-6.1-30.5-9.1-49.1-9.1s-31.6,2.8-45.4,8.3c-13.8,5.6-25.6,13.5-35.4,23.9-9.9,10.4-17.5,22.9-23.1,37.6-5.6,14.7-8.3,30.8-8.3,48.3s2.8,34.2,8.3,48.9c5.5,14.7,13.2,27.2,23.1,37.6,9.8,10.4,21.7,18.4,35.4,24.2,13.8,5.7,28.9,8.6,45.4,8.6s36.2-3,50.5-9.1c14.3-6.1,26.7-14.5,37.1-25.2l56.9,56.9c-18.3,16.8-39.1,30.1-62.6,39.7-23.5,9.7-50.6,14.5-81.4,14.5Z"/>
        </g>
      </g>
    </g>
  </g>
</svg>