<svg width="20" height="20" viewBox="0 0 20 20" fill="none" xmlns="http://www.w3.org/2000/svg">
<path fill-rule="evenodd" clip-rule="evenodd" d="M18.4559 18.4852C19.234 17.7072 19.3806 16.6548 19.2948 15.7459C19.2079 14.8253 18.8698 13.8257 18.3897 12.8286C17.9571 11.9301 17.3803 10.9744 16.6822 9.99991C17.3803 9.02541 17.9571 8.06971 18.3897 7.17121C18.8698 6.17411 19.2079 5.17451 19.2948 4.25391C19.3806 3.34499 19.234 2.29264 18.4559 1.51463C17.6779 0.736623 16.6256 0.589953 15.7166 0.675753C14.7961 0.762643 13.7965 1.10077 12.7994 1.58085C11.9008 2.01348 10.9451 2.59027 9.97066 3.28833C8.99616 2.59027 8.04046 2.01348 7.14186 1.58085C6.14476 1.10077 5.14516 0.762643 4.22466 0.675753C3.3157 0.589953 2.26335 0.736623 1.48534 1.51463C0.707326 2.29264 0.560656 3.34499 0.646456 4.25391C0.733356 5.17451 1.07148 6.17411 1.55156 7.17121C1.9842 8.06971 2.56098 9.02541 3.25904 9.99991C2.56098 10.9744 1.9842 11.9301 1.55156 12.8286C1.07148 13.8257 0.733356 14.8253 0.646456 15.7459C0.560656 16.6548 0.707326 17.7072 1.48534 18.4852C2.26335 19.2632 3.3157 19.4099 4.22466 19.3241C5.14516 19.2372 6.14476 18.899 7.14186 18.419C8.04046 17.9863 8.99616 17.4095 9.97066 16.7115C10.9451 17.4095 11.9008 17.9863 12.7994 18.419C13.7965 18.899 14.7961 19.2372 15.7166 19.3241C16.6256 19.4099 17.6779 19.2632 18.4559 18.4852ZM9.97066 14.9479C10.84 14.2683 11.7241 13.4873 12.5911 12.6204C13.4581 11.7534 14.2391 10.8692 14.9187 9.99991C14.2391 9.13061 13.4581 8.24641 12.5911 7.37941C11.7241 6.51251 10.84 5.73151 9.97066 5.05191C9.10126 5.73151 8.21716 6.51251 7.35016 7.37941C6.48316 8.24641 5.70216 9.13061 5.02256 9.99991C5.70216 10.8692 6.48316 11.7534 7.35016 12.6204C8.21716 13.4873 9.10126 14.2683 9.97066 14.9479ZM11.1499 15.8144C11.9681 15.1557 12.7886 14.4194 13.5894 13.6186C14.3901 12.8179 15.1265 11.9973 15.7852 11.1791C17.7188 13.9918 18.4628 16.4818 17.4577 17.4869C16.4525 18.4921 13.9626 17.7481 11.1499 15.8144ZM4.15606 11.1791C4.81486 11.9973 5.55116 12.8179 6.35186 13.6186C7.15266 14.4194 7.97316 15.1557 8.79146 15.8144C5.97866 17.7481 3.48877 18.4921 2.48361 17.4869C1.47845 16.4818 2.22244 13.9918 4.15606 11.1791ZM4.15606 8.82071C4.81486 8.00251 5.55116 7.18191 6.35186 6.38121C7.15266 5.58041 7.97316 4.84411 8.79146 4.18541C5.97866 2.25173 3.48877 1.50774 2.48361 2.5129C1.47845 3.51806 2.22244 6.00801 4.15606 8.82071ZM11.1499 4.18541C11.9681 4.84411 12.7886 5.58041 13.5894 6.38121C14.3901 7.18191 15.1265 8.00251 15.7852 8.82071C17.7188 6.00801 18.4628 3.51806 17.4577 2.5129C16.4525 1.50774 13.9626 2.25173 11.1499 4.18541Z" fill="black" stroke="black" stroke-width="0.5"/>
</svg>
