<svg width="37" height="25" viewBox="0 0 37 25" fill="none" xmlns="http://www.w3.org/2000/svg">
<path d="M4.11133 10.6826C4.09505 10.5687 4.05436 10.4613 3.98926 10.3604C3.92741 10.2594 3.84603 10.1732 3.74512 10.1016C3.64746 10.0267 3.53516 9.9681 3.4082 9.92578C3.28451 9.88346 3.1543 9.8623 3.01758 9.8623C2.89388 9.8623 2.77832 9.87533 2.6709 9.90137C2.56348 9.92741 2.46908 9.9681 2.3877 10.0234C2.30957 10.0755 2.24609 10.1439 2.19727 10.2285C2.15169 10.3132 2.12891 10.4141 2.12891 10.5312C2.12891 10.6777 2.15983 10.7949 2.22168 10.8828C2.28678 10.9674 2.36816 11.0374 2.46582 11.0928C2.56673 11.1481 2.67741 11.1921 2.79785 11.2246C2.91829 11.2572 3.03548 11.293 3.14941 11.332L4.49219 11.7812C4.67773 11.8464 4.85189 11.9359 5.01465 12.0498C5.17741 12.1637 5.31738 12.3021 5.43457 12.4648C5.55501 12.6276 5.64941 12.8148 5.71777 13.0264C5.78613 13.238 5.82031 13.4756 5.82031 13.7393C5.82031 14.0973 5.75358 14.4245 5.62012 14.7207C5.48991 15.0169 5.30599 15.2708 5.06836 15.4824C4.83073 15.694 4.5459 15.8584 4.21387 15.9756C3.88184 16.0928 3.514 16.1514 3.11035 16.1514C2.82715 16.1514 2.55859 16.1188 2.30469 16.0537C2.05404 15.9919 1.82454 15.9007 1.61621 15.7803C1.40788 15.6598 1.22559 15.5166 1.06934 15.3506C0.913086 15.1813 0.791016 14.9909 0.703125 14.7793H0.200195V13.3096H1.96777V13.6123C1.96777 13.7588 1.99056 13.8939 2.03613 14.0176C2.08496 14.1413 2.15658 14.2487 2.25098 14.3398C2.34538 14.431 2.46419 14.5026 2.60742 14.5547C2.75065 14.6035 2.91829 14.6279 3.11035 14.6279C3.40332 14.6279 3.6263 14.5612 3.7793 14.4277C3.93229 14.291 4.00879 14.1022 4.00879 13.8613C4.00879 13.7376 3.98112 13.6351 3.92578 13.5537C3.8737 13.4691 3.80534 13.3991 3.7207 13.3438C3.63607 13.2852 3.54167 13.2363 3.4375 13.1973C3.33333 13.1582 3.23079 13.1224 3.12988 13.0898L2.01172 12.7285C1.80013 12.6634 1.59505 12.5723 1.39648 12.4551C1.20117 12.3379 1.02702 12.1914 0.874023 12.0156C0.724284 11.8398 0.603841 11.6348 0.512695 11.4004C0.424805 11.1628 0.380859 10.8926 0.380859 10.5898C0.380859 10.2383 0.445964 9.92578 0.576172 9.65234C0.70638 9.37565 0.888672 9.1429 1.12305 8.9541C1.35742 8.7653 1.63574 8.62207 1.95801 8.52441C2.28027 8.42676 2.63346 8.37793 3.01758 8.37793C3.32031 8.37793 3.60026 8.41374 3.85742 8.48535C4.11458 8.55371 4.34408 8.64648 4.5459 8.76367C4.75098 8.88086 4.9235 9.01595 5.06348 9.16895C5.20671 9.31868 5.31576 9.47493 5.39062 9.6377H5.87891V11.1123H4.11133V10.6826ZM6.48438 10.9414H8.79883V11.3809C9.00716 11.2148 9.24154 11.083 9.50195 10.9854C9.76237 10.8877 10.0309 10.8389 10.3076 10.8389C10.6917 10.8389 11.0205 10.9072 11.2939 11.0439C11.5706 11.1774 11.7871 11.3825 11.9434 11.6592C12.0508 11.5387 12.1712 11.4297 12.3047 11.332C12.4414 11.2311 12.5863 11.1449 12.7393 11.0732C12.8923 10.9984 13.0518 10.9414 13.2178 10.9023C13.387 10.86 13.5596 10.8389 13.7354 10.8389C14.3538 10.8389 14.8291 11.0098 15.1611 11.3516C15.4932 11.6934 15.6592 12.193 15.6592 12.8506V14.6621H16.377V16H14.0674V13.0996C14.0674 12.8132 13.9925 12.5885 13.8428 12.4258C13.6963 12.263 13.4912 12.1816 13.2275 12.1816C13.0452 12.1816 12.8727 12.2256 12.71 12.3135C12.5505 12.3981 12.391 12.5462 12.2314 12.7578C12.2347 12.7936 12.2363 12.8311 12.2363 12.8701C12.2363 12.9059 12.2363 12.9434 12.2363 12.9824V14.6621H12.9688V16H10.6592V13.0898C10.6592 12.9531 10.638 12.8294 10.5957 12.7188C10.5534 12.6081 10.4948 12.5137 10.4199 12.4355C10.3451 12.3574 10.2555 12.2972 10.1514 12.2549C10.0505 12.2093 9.93815 12.1849 9.81445 12.1816C9.65169 12.1784 9.48242 12.2142 9.30664 12.2891C9.13411 12.3639 8.9681 12.5023 8.80859 12.7041V14.6621H9.61914V16H6.47461V14.6621H7.22656V12.2793H6.48438V10.9414ZM18.9111 10.9414H19.9219V12.2207H18.9014L18.8916 14.3594C18.8916 14.4831 18.9014 14.584 18.9209 14.6621C18.9404 14.737 18.9681 14.7972 19.0039 14.8428C19.043 14.8883 19.0885 14.9193 19.1406 14.9355C19.1927 14.9518 19.2529 14.96 19.3213 14.96C19.445 14.96 19.554 14.9486 19.6484 14.9258C19.7428 14.8997 19.8372 14.8704 19.9316 14.8379L20.1416 15.7803C19.9756 15.8844 19.79 15.9674 19.585 16.0293C19.3831 16.0911 19.1423 16.1221 18.8623 16.1221C18.6637 16.1221 18.4733 16.0879 18.291 16.0195C18.112 15.9512 17.9541 15.8486 17.8174 15.7119C17.6807 15.5719 17.5716 15.3978 17.4902 15.1895C17.4089 14.9811 17.3698 14.7386 17.373 14.4619L17.3877 12.2207H16.6602V10.9414H17.3926L17.4023 9.73047L18.9209 9.00781L18.9111 10.9414ZM21.0986 10.9414H23.3057V11.0146C23.4619 10.9463 23.6214 10.8926 23.7842 10.8535C23.9469 10.8112 24.1146 10.79 24.2871 10.79C24.6582 10.79 25.0033 10.86 25.3223 11C25.6413 11.14 25.918 11.3304 26.1523 11.5713C26.3867 11.8122 26.569 12.0938 26.6992 12.416C26.8327 12.7383 26.8994 13.0801 26.8994 13.4414C26.8994 13.806 26.8343 14.1494 26.7041 14.4717C26.5771 14.7939 26.3981 15.0755 26.167 15.3164C25.9359 15.554 25.6592 15.7428 25.3369 15.8828C25.0179 16.0195 24.668 16.0879 24.2871 16.0879C24.0723 16.0879 23.8721 16.0667 23.6865 16.0244C23.501 15.9854 23.3219 15.9284 23.1494 15.8535V16.9619H24.1162V18.2998H20.8154V16.9619H21.6455V12.2793H21.0986V10.9414ZM24.1797 12.1377C23.9746 12.1377 23.7826 12.1914 23.6035 12.2988C23.4245 12.4062 23.2731 12.5576 23.1494 12.7529V14.1787C23.2536 14.3447 23.3952 14.4798 23.5742 14.584C23.7533 14.6882 23.9551 14.7402 24.1797 14.7402C24.3457 14.7402 24.5036 14.7093 24.6533 14.6475C24.8031 14.5824 24.9333 14.4928 25.0439 14.3789C25.1546 14.2617 25.2425 14.125 25.3076 13.9688C25.3727 13.8092 25.4053 13.6367 25.4053 13.4512C25.4053 13.2461 25.3727 13.0622 25.3076 12.8994C25.2458 12.7367 25.1595 12.5999 25.0488 12.4893C24.9382 12.3753 24.8079 12.2891 24.6582 12.2305C24.5085 12.1686 24.349 12.1377 24.1797 12.1377ZM27.5977 8.59766H30.3955V10.082H29.8779V15.1602C29.8063 15.4238 29.7021 15.6663 29.5654 15.8877C29.4287 16.1058 29.2936 16.3044 29.1602 16.4834C29.0299 16.6624 28.846 16.8887 28.6084 17.1621L27.2461 17.0889C27.4382 16.7959 27.5879 16.5534 27.6953 16.3613C27.806 16.1725 27.9167 15.9642 28.0273 15.7363C28.138 15.5052 28.2243 15.2594 28.2861 14.999V10.082H27.5977V8.59766ZM34.6582 10.6826C34.6419 10.5687 34.6012 10.4613 34.5361 10.3604C34.4743 10.2594 34.3929 10.1732 34.292 10.1016C34.1943 10.0267 34.082 9.9681 33.9551 9.92578C33.8314 9.88346 33.7012 9.8623 33.5645 9.8623C33.4408 9.8623 33.3252 9.87533 33.2178 9.90137C33.1104 9.92741 33.016 9.9681 32.9346 10.0234C32.8564 10.0755 32.793 10.1439 32.7441 10.2285C32.6986 10.3132 32.6758 10.4141 32.6758 10.5312C32.6758 10.6777 32.7067 10.7949 32.7686 10.8828C32.8337 10.9674 32.915 11.0374 33.0127 11.0928C33.1136 11.1481 33.2243 11.1921 33.3447 11.2246C33.4652 11.2572 33.5824 11.293 33.6963 11.332L35.0391 11.7812C35.2246 11.8464 35.3988 11.9359 35.5615 12.0498C35.7243 12.1637 35.8643 12.3021 35.9814 12.4648C36.1019 12.6276 36.1963 12.8148 36.2646 13.0264C36.333 13.238 36.3672 13.4756 36.3672 13.7393C36.3672 14.0973 36.3005 14.4245 36.167 14.7207C36.0368 15.0169 35.8529 15.2708 35.6152 15.4824C35.3776 15.694 35.0928 15.8584 34.7607 15.9756C34.4287 16.0928 34.0609 16.1514 33.6572 16.1514C33.374 16.1514 33.1055 16.1188 32.8516 16.0537C32.6009 15.9919 32.3714 15.9007 32.1631 15.7803C31.9548 15.6598 31.7725 15.5166 31.6162 15.3506C31.46 15.1813 31.3379 14.9909 31.25 14.7793H30.7471V13.3096H32.5146V13.6123C32.5146 13.7588 32.5374 13.8939 32.583 14.0176C32.6318 14.1413 32.7035 14.2487 32.7979 14.3398C32.8923 14.431 33.0111 14.5026 33.1543 14.5547C33.2975 14.6035 33.4652 14.6279 33.6572 14.6279C33.9502 14.6279 34.1732 14.5612 34.3262 14.4277C34.4792 14.291 34.5557 14.1022 34.5557 13.8613C34.5557 13.7376 34.528 13.6351 34.4727 13.5537C34.4206 13.4691 34.3522 13.3991 34.2676 13.3438C34.1829 13.2852 34.0885 13.2363 33.9844 13.1973C33.8802 13.1582 33.7777 13.1224 33.6768 13.0898L32.5586 12.7285C32.347 12.6634 32.1419 12.5723 31.9434 12.4551C31.748 12.3379 31.5739 12.1914 31.4209 12.0156C31.2712 11.8398 31.1507 11.6348 31.0596 11.4004C30.9717 11.1628 30.9277 10.8926 30.9277 10.5898C30.9277 10.2383 30.9928 9.92578 31.123 9.65234C31.2533 9.37565 31.4355 9.1429 31.6699 8.9541C31.9043 8.7653 32.1826 8.62207 32.5049 8.52441C32.8271 8.42676 33.1803 8.37793 33.5645 8.37793C33.8672 8.37793 34.1471 8.41374 34.4043 8.48535C34.6615 8.55371 34.891 8.64648 35.0928 8.76367C35.2979 8.88086 35.4704 9.01595 35.6104 9.16895C35.7536 9.31868 35.8626 9.47493 35.9375 9.6377H36.4258V11.1123H34.6582V10.6826Z" fill="#34495E"/>
</svg>
