<svg width="50" height="50" viewBox="0 0 50 50" fill="none" xmlns="http://www.w3.org/2000/svg">
<path fill-rule="evenodd" clip-rule="evenodd" d="M4.16675 12.5C4.16675 9.04823 6.96498 6.25 10.4167 6.25H39.5834C43.0353 6.25 45.8334 9.04823 45.8334 12.5V31.25C45.8334 34.7019 43.0353 37.5 39.5834 37.5H27.0834V39.5833H31.2501C32.4007 39.5833 33.3334 40.516 33.3334 41.6667C33.3334 42.8173 32.4007 43.75 31.2501 43.75H18.7501C17.5995 43.75 16.6667 42.8173 16.6667 41.6667C16.6667 40.516 17.5995 39.5833 18.7501 39.5833H22.9167V37.5H10.4167C6.96498 37.5 4.16675 34.7019 4.16675 31.25V12.5ZM10.4167 10.4167C9.26616 10.4167 8.33341 11.3494 8.33341 12.5V31.25C8.33341 32.4006 9.26616 33.3333 10.4167 33.3333H39.5834C40.734 33.3333 41.6667 32.4006 41.6667 31.25V12.5C41.6667 11.3494 40.734 10.4167 39.5834 10.4167H10.4167Z" fill="black"/>
</svg>
