<svg width="48" height="53" viewBox="0 0 48 53" fill="none" xmlns="http://www.w3.org/2000/svg">
<path d="M15.8683 50.9999C11.7777 49.1743 8.399 46.3295 6.17822 42.521" stroke="black" stroke-width="3" stroke-linecap="round"/>
<path d="M30.5327 2.90473C34.6031 1.74658 38.8053 2.84915 41.7385 5.84495" stroke="black" stroke-width="3" stroke-linecap="round"/>
<path d="M19.8315 20.7196C20.3381 21.5882 21.4527 21.8817 22.3212 21.3752C23.1897 20.8687 23.4832 19.754 22.9768 18.8855L19.8315 20.7196ZM12.8445 27.049C13.351 27.9175 14.4657 28.211 15.3343 27.7044C16.2028 27.198 16.4963 26.0834 15.9898 25.2147L12.8445 27.049ZM33.4999 22.2341L34.4033 23.8148C34.8249 23.5738 35.1327 23.1745 35.2585 22.7055C35.3842 22.2363 35.3172 21.7366 35.0725 21.3171L33.4999 22.2341ZM35.849 11.5655C36.3554 12.434 37.47 12.7275 38.3388 12.221C39.2073 11.7145 39.5007 10.5999 38.9941 9.73131L35.849 11.5655ZM28.0056 34.7371C28.5121 35.6056 29.6268 35.8991 30.4953 35.3927C31.364 34.8862 31.6575 33.7715 31.1509 32.903L28.0056 34.7371ZM43.9362 18.206C43.4296 17.3375 42.315 17.044 41.4465 17.5504C40.578 18.0569 40.2845 19.1716 40.7909 20.0402L43.9362 18.206ZM16.3614 46.5833C17.2438 47.0653 18.3498 46.7408 18.8319 45.8585C19.314 44.9761 18.9897 43.8702 18.1073 43.3882L16.3614 46.5833ZM28.2599 45.0419C27.2657 45.191 26.5805 46.118 26.7295 47.1122C26.8785 48.1067 27.8053 48.7919 28.7998 48.6429L28.2599 45.0419ZM5.18552 19.4878C6.72365 18.6088 8.23785 19.1491 8.75745 20.0402L11.9028 18.206C10.1651 15.2262 6.26382 14.6779 3.37887 16.3267L5.18552 19.4878ZM3.37887 16.3267C0.488275 17.9787 -0.997962 21.622 0.748729 24.6173L3.89401 22.7832C3.38346 21.9077 3.65299 20.3637 5.18552 19.4878L3.37887 16.3267ZM11.6573 6.70216L13.7009 10.2065L16.8462 8.37238L14.8026 4.86801L11.6573 6.70216ZM13.7009 10.2065L19.8315 20.7196L22.9768 18.8855L16.8462 8.37238L13.7009 10.2065ZM15.9898 25.2147L11.9028 18.206L8.75745 20.0402L12.8445 27.049L15.9898 25.2147ZM11.9028 18.206L6.79388 9.4451L3.6486 11.2792L8.75745 20.0402L11.9028 18.206ZM8.08539 6.14984C9.62353 5.27078 11.1377 5.81115 11.6573 6.70216L14.8026 4.86801C13.065 1.8882 9.16369 1.33989 6.27875 2.98866L8.08539 6.14984ZM6.27875 2.98866C3.38815 4.64069 1.90191 8.28393 3.6486 11.2792L6.79388 9.4451C6.28333 8.56958 6.55287 7.0257 8.08539 6.14984L6.27875 2.98866ZM21.7095 5.62944L27.8403 16.1425L30.9856 14.3084L24.8549 3.79529L21.7095 5.62944ZM27.8403 16.1425L31.9274 23.1512L35.0725 21.3171L30.9856 14.3084L27.8403 16.1425ZM18.1377 5.07712C19.6759 4.19806 21.1901 4.73844 21.7095 5.62944L24.8549 3.79529C23.1171 0.815489 19.2159 0.267177 16.331 1.91595L18.1377 5.07712ZM16.331 1.91595C13.4404 3.56797 11.9542 7.21122 13.7009 10.2065L16.8462 8.37238C16.3356 7.49687 16.6051 5.95298 18.1377 5.07712L16.331 1.91595ZM32.277 11.0131C33.8152 10.1341 35.3293 10.6745 35.849 11.5655L38.9941 9.73131C37.2566 6.75153 33.3554 6.20319 30.4703 7.85199L32.277 11.0131ZM30.4703 7.85199C27.5798 9.50399 26.0935 13.1473 27.8403 16.1425L30.9856 14.3084C30.4749 13.4329 30.7446 11.889 32.277 11.0131L30.4703 7.85199ZM0.748729 24.6173L9.94466 40.387L13.09 38.5527L3.89401 22.7832L0.748729 24.6173ZM41.9795 22.0785C45.8759 28.7603 42.9728 38.0849 34.8055 42.7524L36.6122 45.9138C46.1376 40.47 50.2575 29.046 45.1249 20.2444L41.9795 22.0785ZM31.1509 32.903C29.5117 30.0919 30.6591 25.9545 34.4033 23.8148L32.5966 20.6536C27.4946 23.5697 25.1304 29.8065 28.0056 34.7371L31.1509 32.903ZM40.7909 20.0402L41.9795 22.0785L45.1249 20.2444L43.9362 18.206L40.7909 20.0402ZM18.1073 43.3882C16.0376 42.2573 14.3014 40.6302 13.09 38.5527L9.94466 40.387C11.5104 43.0719 13.7466 45.1545 16.3614 46.5833L18.1073 43.3882ZM34.8055 42.7524C32.6947 43.9588 30.4676 44.7111 28.2599 45.0419L28.7998 48.6429C31.4519 48.2453 34.1089 47.3445 36.6122 45.9138L34.8055 42.7524Z" fill="black"/>
</svg>
