<svg width="50" height="50" viewBox="0 0 50 50" fill="none" xmlns="http://www.w3.org/2000/svg">
<path d="M32.2917 17.7083H32.3125M21.875 15.625H21.8958M15.625 23.9583H15.6458M25 43.75C14.6447 43.75 6.25 35.3554 6.25 25C6.25 14.6447 14.6447 6.25 25 6.25C35.3554 6.25 43.75 14.6447 43.75 25C43.75 28.4519 40.9519 31.25 37.5 31.25H36.25C35.4758 31.25 35.0887 31.25 34.7648 31.3012C32.9819 31.5837 31.5837 32.9819 31.3012 34.7648C31.25 35.0887 31.25 35.4758 31.25 36.25V37.5C31.25 40.9519 28.4519 43.75 25 43.75ZM33.3333 17.7083C33.3333 18.2836 32.8669 18.75 32.2917 18.75C31.7165 18.75 31.25 18.2836 31.25 17.7083C31.25 17.133 31.7165 16.6667 32.2917 16.6667C32.8669 16.6667 33.3333 17.133 33.3333 17.7083ZM22.9167 15.625C22.9167 16.2003 22.4502 16.6667 21.875 16.6667C21.2998 16.6667 20.8333 16.2003 20.8333 15.625C20.8333 15.0497 21.2998 14.5833 21.875 14.5833C22.4502 14.5833 22.9167 15.0497 22.9167 15.625ZM16.6667 23.9583C16.6667 24.5335 16.2003 25 15.625 25C15.0497 25 14.5833 24.5335 14.5833 23.9583C14.5833 23.3831 15.0497 22.9167 15.625 22.9167C16.2003 22.9167 16.6667 23.3831 16.6667 23.9583Z" stroke="black" stroke-width="3" stroke-linecap="round" stroke-linejoin="round"/>
</svg>
