<svg width="15" height="17" viewBox="0 0 15 17" fill="none" xmlns="http://www.w3.org/2000/svg">
<path d="M3.24515 15.2004L3.245 15.2005C3.04288 15.3172 2.8136 15.3786 2.58021 15.3787C2.34682 15.3787 2.11753 15.3173 1.91537 15.2007C1.71321 15.0841 1.5453 14.9163 1.42851 14.7142C1.31175 14.5122 1.25019 14.2831 1.25 14.0498V2.58025C1.25019 2.34694 1.31175 2.11779 1.42851 1.91579C1.5453 1.71372 1.71321 1.54595 1.91537 1.42932C2.11753 1.31268 2.34682 1.25131 2.58021 1.25134C2.8136 1.25138 3.04288 1.31283 3.245 1.42953L13.1742 7.16905C13.1742 7.16907 13.1743 7.1691 13.1743 7.16912C13.376 7.28597 13.5435 7.45378 13.6599 7.65575C13.7764 7.85776 13.8377 8.08683 13.8377 8.32001C13.8377 8.55319 13.7764 8.78226 13.6599 8.98427C13.5436 9.18613 13.3762 9.35388 13.1746 9.47071C13.1745 9.4708 13.1743 9.47089 13.1742 9.47097L3.24515 15.2004Z" stroke="#464646" stroke-width="1.5"/>
</svg>
