<?xml version="1.0" encoding="UTF-8"?>
<svg id="Calque_2" data-name="Calque 2" xmlns="http://www.w3.org/2000/svg" viewBox="0 0 576.05 448">
  <defs>
    <style>
      .cls-1 {
        fill: #fff;
      }
    </style>
  </defs>
  <g id="Calque_1-2" data-name="Calque 1">
    <path class="cls-1" d="M287.97,0C207.17,0,142.47,36.8,95.37,80.6,48.57,124,17.27,176,2.47,211.7c-3.3,7.9-3.3,16.7,0,24.6,14.8,35.7,46.1,87.7,92.9,131.1,47.1,43.8,111.8,80.6,192.6,80.6s145.5-36.8,192.6-80.6c46.8-43.5,78.1-95.4,93-131.1,3.3-7.9,3.3-16.7,0-24.6-14.9-35.7-46.2-87.7-93-131.1C433.47,36.8,368.77,0,287.97,0Zm144,224c0,79.5-64.5,144-144,144s-144-64.5-144-144S208.47,80,287.97,80s144,64.5,144,144Zm-144-64c0,35.3-28.7,64-64,64-11.5,0-22.3-3-31.6-8.4-.2,2.8-.4,5.5-.4,8.4,0,53,43,96,96,96s96-43,96-96-43-96-96-96c-2.8,0-5.6,.1-8.4,.4,5.3,9.3,8.4,20.1,8.4,31.6Z"/>
  </g>
</svg>