<?xml version="1.0" encoding="UTF-8" standalone="no"?>
<!DOCTYPE svg PUBLIC "-//W3C//DTD SVG 1.1//EN" "http://www.w3.org/Graphics/SVG/1.1/DTD/svg11.dtd">
<svg width="100%" height="100%" viewBox="0 0 259 342" version="1.1" xmlns="http://www.w3.org/2000/svg" xmlns:xlink="http://www.w3.org/1999/xlink" xml:space="preserve" xmlns:serif="http://www.serif.com/" style="fill-rule:evenodd;clip-rule:evenodd;stroke-linejoin:round;stroke-miterlimit:2;">
    <path d="M67.526,0L31.57,50.642L31.57,79.268L0.282,94.15L0,94.018L0,280.778L121.987,338.409L129.441,341.927L136.896,338.409L258.882,280.778L258.882,94.018L258.652,94.126L227.356,79.239L227.356,50.642L226.261,49.102L191.398,0L155.441,50.642L155.441,50.692L129.277,13.843L103.317,50.409L102.388,49.102L67.526,0ZM73.887,29.417L87.794,49.002L47.258,49.002L61.003,29.647L73.887,29.417ZM197.757,29.417L211.667,49.002L171.13,49.002L184.872,29.647L197.757,29.417ZM135.638,43.262L149.545,62.846L109.012,62.846L122.754,43.49L135.638,43.262ZM43.414,58.873L62.639,58.873L62.639,123.61L43.414,114.527L43.414,58.873ZM72.51,58.873L91.64,58.873L91.64,137.308L72.51,128.272L72.51,58.873ZM167.288,58.873L186.512,58.873L186.512,128.205L167.288,137.287L167.288,58.873ZM196.381,58.873L215.509,58.873L215.509,114.505L196.381,123.541L196.381,58.873ZM105.166,72.716L124.392,72.716L124.392,152.781L105.166,143.697L105.166,72.716ZM134.263,72.716L153.39,72.716L153.39,143.853L134.263,152.891L134.263,72.716ZM227.352,93.992L244.279,100.913L227.352,108.909L227.352,93.992ZM31.57,94.018L31.57,108.933L14.647,100.937L31.57,94.018ZM14.908,117.549L121.987,168.134L121.987,321.918L14.907,271.334L14.908,117.549ZM243.973,117.549L243.973,271.334L136.896,321.918L136.896,168.133L243.973,117.549Z" style="fill-rule:nonzero;"/>
</svg>
