<?xml version="1.0" encoding="UTF-8" standalone="no"?>
<!DOCTYPE svg PUBLIC "-//W3C//DTD SVG 1.1//EN" "http://www.w3.org/Graphics/SVG/1.1/DTD/svg11.dtd">
<svg width="100%" height="100%" viewBox="0 0 800 800" version="1.1" xmlns="http://www.w3.org/2000/svg" xmlns:xlink="http://www.w3.org/1999/xlink" xml:space="preserve" xmlns:serif="http://www.serif.com/" style="fill-rule:evenodd;clip-rule:evenodd;stroke-linejoin:round;stroke-miterlimit:2;">
    <path d="M607.507,388.987L314.173,188.987C310.08,186.213 304.8,185.907 300.427,188.213C296.067,190.52 293.333,195.053 293.333,200L293.333,600C293.333,604.947 296.067,609.48 300.44,611.787C302.387,612.827 304.533,613.333 306.667,613.333C309.293,613.333 311.92,612.547 314.173,611.013L607.507,411.013C611.147,408.533 613.333,404.413 613.333,400C613.333,395.587 611.147,391.467 607.507,388.987ZM350,524.76L350,275.24L536.333,400L350,524.76Z" style="fill:white;fill-rule:nonzero;"/>
    <path d="M400,0C179.44,0 0,179.44 0,400C0,620.56 179.44,800 400,800C620.56,800 800,620.56 800,400C800,179.44 620.56,0 400,0ZM400,733.333C194.147,733.333 66.667,605.853 66.667,400C66.667,194.147 194.147,66.667 400,66.667C605.853,66.667 733.333,194.147 733.333,400C733.333,605.853 605.853,733.333 400,733.333Z" style="fill:white;fill-rule:nonzero;"/>
</svg>
