<?xml version="1.0" encoding="UTF-8" standalone="no"?>
<!DOCTYPE svg PUBLIC "-//W3C//DTD SVG 1.1//EN" "http://www.w3.org/Graphics/SVG/1.1/DTD/svg11.dtd">
<svg width="100%" height="100%" viewBox="0 0 57 57" version="1.1" xmlns="http://www.w3.org/2000/svg" xmlns:xlink="http://www.w3.org/1999/xlink" xml:space="preserve" xmlns:serif="http://www.serif.com/" style="fill-rule:evenodd;clip-rule:evenodd;stroke-linejoin:round;stroke-miterlimit:2;">
    <g transform="matrix(1,0,0,1,-5,-5)">
        <g transform="matrix(1,0,0,1,-25.585,-24.998)">
            <g id="g12">
                <circle id="circle14" cx="58.657" cy="58.07" r="28.072"/>
                <path id="path16" d="M70.93,40.385C68.079,40.485 65.588,42.057 63.737,44.231C61.684,46.615 60.32,49.444 59.336,52.33C57.577,50.888 56.22,49.022 53.398,48.208C51.215,47.581 48.925,47.839 46.818,49.409C45.819,50.155 45.132,51.282 44.805,52.341C43.957,55.095 45.694,57.546 46.484,58.427L48.209,60.273C48.565,60.636 49.42,61.582 49.003,62.937C48.55,64.412 46.774,65.365 44.951,64.804C44.137,64.552 42.967,63.947 43.23,63.095C43.338,62.745 43.588,62.482 43.723,62.183C43.846,61.923 43.904,61.729 43.941,61.615C44.274,60.527 43.819,59.113 42.655,58.754C41.568,58.422 40.458,58.686 40.027,60.083C39.537,61.674 40.298,64.555 44.371,65.812C49.143,67.279 53.18,64.679 53.752,61.291C54.113,59.169 53.153,57.591 51.398,55.562L49.968,53.981C49.101,53.114 48.804,51.639 49.7,50.506C50.457,49.549 51.534,49.141 53.301,49.62C55.878,50.318 57.027,52.107 58.943,53.55C58.152,56.145 57.634,58.75 57.167,61.088L56.88,62.828C55.509,70.014 54.464,73.959 51.746,76.224C51.199,76.615 50.415,77.197 49.236,77.238C48.617,77.258 48.418,76.832 48.408,76.646C48.394,76.212 48.761,76.013 49.004,75.818C49.367,75.619 49.916,75.291 49.879,74.24C49.838,72.994 48.808,71.916 47.32,71.967C46.203,72.004 44.504,73.053 44.568,74.977C44.634,76.961 46.484,78.45 49.274,78.354C50.766,78.305 54.096,77.698 57.377,73.797C61.196,69.324 62.265,64.197 63.069,60.445L63.965,55.492C64.464,55.551 64.996,55.592 65.576,55.605C70.333,55.707 72.712,53.242 72.749,51.45C72.772,50.365 72.037,49.298 71.007,49.322C70.271,49.343 69.345,49.833 69.123,50.851C68.906,51.851 70.637,52.753 69.284,53.63C68.323,54.253 66.6,54.691 64.174,54.335L64.616,51.896C65.515,47.272 66.627,41.584 70.84,41.447C71.147,41.431 72.271,41.461 72.297,42.203C72.304,42.451 72.243,42.515 71.953,43.083C71.656,43.525 71.545,43.902 71.558,44.336C71.6,45.516 72.497,46.292 73.796,46.246C75.533,46.189 76.033,44.498 76.005,43.628C75.933,41.583 73.779,40.293 70.93,40.385Z" style="fill:white;fill-rule:nonzero;"/>
            </g>
        </g>
    </g>
</svg>
